<svg width="20" height="20" viewBox="0 0 20 20" fill="none" xmlns="http://www.w3.org/2000/svg">
<path fill-rule="evenodd" clip-rule="evenodd" d="M5.5 17C6.32843 17 7 17.6716 7 18.5C7 19.3284 6.32843 20 5.5 20C4.67157 20 4 19.3284 4 18.5C4 17.6716 4.67157 17 5.5 17ZM15.5 17C16.3284 17 17 17.6716 17 18.5C17 19.3284 16.3284 20 15.5 20C14.6716 20 14 19.3284 14 18.5C14 17.6716 14.6716 17 15.5 17ZM2.5 0C2.72101 0 2.93448 0.0731645 3.10803 0.206081L3.20711 0.292893L5.915 3H18.4895C19.0418 3 19.4895 3.44772 19.4895 4C19.4895 4.13419 19.4625 4.26701 19.4101 4.39055L16.6989 10.7811C16.3854 11.5201 15.6605 12 14.8578 12H6V13L6.00673 13.1166C6.06005 13.5757 6.4243 13.9399 6.88338 13.9933L7 14H16L16.1166 14.0067C16.614 14.0645 17 14.4872 17 15C17 15.5128 16.614 15.9355 16.1166 15.9933L16 16H7L6.82373 15.9949C5.30725 15.907 4.09296 14.6928 4.00509 13.1763L4 13V11L4.00673 10.8834C4.01875 10.7799 4.04658 10.6812 4.08775 10.5898C4.03104 10.4041 4 10.2057 4 10V3.915L2.085 2H1C0.447716 2 0 1.55228 0 1C0 0.447715 0.447715 0 1 0H2.5ZM16.978 5H6V10H14.8578L16.978 5Z" fill="#7E84A3"/>
</svg>
