<svg width="20" height="20" viewBox="0 0 20 20" fill="none" xmlns="http://www.w3.org/2000/svg">
<g clip-path="url(#clip0_291_416)">
<path d="M19.1837 8.24601L7.61339 1.12882C6.53917 0.468661 5.27746 0.269443 4.05089 0.558505C2.82824 0.851474 1.79308 1.60538 1.13292 2.6796C-0.22645 4.89444 0.468862 7.80851 2.6798 9.16788L6.16027 11.3085V15.9765H3.10558V14.8437C3.10558 14.4023 2.75011 14.0468 2.30871 14.0468C1.8673 14.0468 1.51183 14.4023 1.51183 14.8437V18.7733C1.51183 19.2148 1.8673 19.5702 2.30871 19.5702C2.75011 19.5702 3.10558 19.2148 3.10558 18.7733V17.5702H6.95714C7.39855 17.5702 7.75402 17.2148 7.75402 16.7733V12.289C7.75402 12.289 11.2892 14.4648 11.3439 14.4999C11.6681 14.6991 12.0353 14.8007 12.4415 14.8007C13.7501 14.8007 15.2657 13.7069 16.3048 12.0116C16.9415 10.9726 17.2892 9.91397 17.3439 8.98429L18.3478 9.60147C18.7228 9.83194 19.215 9.71476 19.4454 9.33976C19.6759 8.96866 19.5587 8.47647 19.1837 8.24601ZM2.4923 3.51163C2.92589 2.80069 3.61339 2.3046 4.42589 2.10929C5.23449 1.91397 6.07043 2.05069 6.78136 2.48429L13.5587 6.65616C12.7423 7.13272 11.9454 7.93351 11.3243 8.94913C10.6876 9.98819 10.34 11.0468 10.2853 11.9765L3.51574 7.81241C2.05089 6.91007 1.58996 4.98038 2.4923 3.51163ZM14.9454 11.1796C14.129 12.5116 12.7814 13.4648 12.1798 13.1444C11.7111 12.8944 11.6993 11.3866 12.6798 9.78507C13.4962 8.45304 14.7071 7.54679 15.4454 7.82022C15.8986 8.09757 15.9259 9.57804 14.9454 11.1796Z" fill="#7E84A3"/>
</g>
<defs>
<clipPath id="clip0_291_416">
<rect width="20" height="20" fill="white"/>
</clipPath>
</defs>
</svg>
