<svg width="16" height="18" viewBox="0 0 16 18" fill="none" xmlns="http://www.w3.org/2000/svg">
<path fill-rule="evenodd" clip-rule="evenodd" d="M9.32873 0.515457C9.3873 0.567519 9.44276 0.622978 9.49482 0.681548L15.4948 7.43155C15.8202 7.79765 16 8.27045 16 8.76027V15.9999C16 17.1044 15.1046 17.9999 14 17.9999H10.002C10.0013 17.9999 10.0007 17.9999 10 17.9999H6C5.99934 17.9999 5.99868 17.9999 5.99803 17.9999H2C0.89543 17.9999 0 17.1044 0 15.9999V8.76027C0 8.27045 0.179757 7.79765 0.505181 7.43155L6.50518 0.681548C7.23902 -0.144018 8.50316 -0.218379 9.32873 0.515457ZM7 15.9999H9V11.9999H7V15.9999ZM11 15.9999V10.9999C11 10.4476 10.5523 9.99988 10 9.99988H6C5.44772 9.99988 5 10.4476 5 10.9999V15.9999H2V8.76027L8 2.01028L14 8.76027V15.9999H11Z" fill="#7E84A3"/>
</svg>
