<svg width="20" height="20" viewBox="0 0 20 20" fill="none" xmlns="http://www.w3.org/2000/svg">
<g clip-path="url(#clip0_291_137)">
<path d="M11.5791 14.7984V18.75H1.05273V1.25H11.5791V5.91666" stroke="#7E84A3" stroke-width="2" stroke-linecap="round" stroke-linejoin="round"/>
<path d="M17.8949 8.75H7.36855C6.7872 8.75 6.31592 9.30964 6.31592 10C6.31592 10.6904 6.7872 11.25 7.36855 11.25H17.8949C18.4762 11.25 18.9475 10.6904 18.9475 10C18.9475 9.30964 18.4762 8.75 17.8949 8.75Z" fill="#7E84A3"/>
<path d="M18.8945 9.08414L15.9172 5.81683C15.5061 5.36571 14.8396 5.36571 14.4285 5.81683C14.0175 6.26795 14.0175 6.99936 14.4285 7.45048L17.4058 10.7178C17.8169 11.1689 18.4834 11.1689 18.8945 10.7178C19.3055 10.2667 19.3055 9.53526 18.8945 9.08414Z" fill="#7E84A3"/>
<path d="M18.8945 10.9159L15.9172 14.1832C15.5061 14.6343 14.8396 14.6343 14.4285 14.1832C14.0175 13.7321 14.0175 13.0006 14.4285 12.5495L17.4058 9.2822C17.8169 8.83108 18.4834 8.83108 18.8945 9.2822C19.3055 9.73332 19.3055 10.4647 18.8945 10.9159Z" fill="#7E84A3"/>
</g>
<defs>
<clipPath id="clip0_291_137">
<rect width="20" height="20" fill="white"/>
</clipPath>
</defs>
</svg>
