<svg width="18" height="20" viewBox="0 0 18 20" fill="none" xmlns="http://www.w3.org/2000/svg">
<path fill-rule="evenodd" clip-rule="evenodd" d="M10.2857 0C13.2193 0.515254 15.4286 2.86829 15.4286 5.55556V10C16.8487 10 18 10.9949 18 12.2222V17.7778H11.5714V18C11.5714 19.1046 10.676 20 9.57143 20H8.42857C7.324 20 6.42857 19.1046 6.42857 18V17.7778H0V12.2222C0 10.9949 1.15127 10 2.57143 10V5.55556C2.57143 2.8679 4.7801 0.514826 7.71429 0H10.2857ZM8.99981 2.22223C6.94565 2.22223 5.26653 3.60992 5.14922 5.3597L5.14267 5.55556V10.2222C5.14267 11.3268 4.24724 12.2222 3.14267 12.2222H2.57124V15.5556H15.4284V12.2222H14.857C13.7524 12.2222 12.857 11.3268 12.857 10.2222V5.55556C12.857 3.71461 11.1301 2.22223 8.99981 2.22223Z" fill="#7E84A3"/>
</svg>
