<svg width="16" height="18" viewBox="0 0 16 18" fill="none" xmlns="http://www.w3.org/2000/svg">
<path fill-rule="evenodd" clip-rule="evenodd" d="M8 9C12.3349 9 15.8645 12.4478 15.9962 16.7508L16 17V18H0V17C0 12.5817 3.58172 9 8 9ZM8 11C5.14444 11 2.75479 12.9948 2.14861 15.667L2.10104 15.8977L2.084 16H13.915L13.899 15.8977C13.4095 13.2618 11.1969 11.2312 8.47386 11.0184L8.22494 11.0041L8 11ZM8 0C10.2091 0 12 1.79086 12 4C12 6.20914 10.2091 8 8 8C5.79086 8 4 6.20914 4 4C4 1.79086 5.79086 0 8 0ZM8 2C6.89543 2 6 2.89543 6 4C6 5.10457 6.89543 6 8 6C9.10457 6 10 5.10457 10 4C10 2.89543 9.10457 2 8 2Z" fill="#7E84A3"/>
</svg>
