<svg width="180" height="54" viewBox="0 0 180 54" fill="none" xmlns="http://www.w3.org/2000/svg">
<path d="M55.4774 19.107C55.3072 19.1776 55.2129 19.1939 55.1946 19.1559C53.5371 19.141 51.8796 19.1335 50.2221 19.1335C47.8864 19.1335 46.2315 19.0948 45.2574 19.0174C41.4685 18.7173 38.2452 17.9031 35.5874 16.575C30.1383 13.8507 28.5057 10.4387 30.6895 6.33876C30.9409 6.09974 31.1844 5.84715 31.4201 5.58097C33.9927 2.70668 38.7099 0.830554 44.6919 0.142028C45.4119 0.0591882 46.6557 0.0164097 48.4232 0.0136937C56.8285 -0.00124474 65.1448 -0.00396101 73.3721 0.00554526C73.6915 0.00554526 73.7793 0.0795584 73.6352 0.227584L55.4774 19.107Z" fill="#F500F5"/>
<path d="M30.6898 6.33887C28.506 10.4388 30.1386 13.8509 35.5876 16.5751C38.2454 17.9032 41.4687 18.7174 45.2577 19.0175C46.2318 19.0949 47.8866 19.1336 50.2223 19.1336C51.8798 19.1336 53.5373 19.1411 55.1948 19.156L36.8092 38.4001L0.210633 38.394C0.17466 38.3939 0.139342 38.389 0.107999 38.3798C0.0766561 38.3707 0.0503166 38.3575 0.0314626 38.3416C0.0126086 38.3258 0.00185751 38.3076 0.000219911 38.289C-0.00141769 38.2704 0.0061118 38.2518 0.0221012 38.2351L30.6898 6.33887Z" fill="#4141F9"/>
<path d="M36.8091 38.4L55.1948 19.1559C55.2131 19.1939 55.3074 19.1776 55.4776 19.107C57.8001 19.0975 60.0979 19.0928 62.3707 19.0928C64.7352 19.0941 67.2057 19.4017 69.7823 20.0156C78.223 22.0282 82.3392 27.021 79.6095 31.6207C77.681 34.8657 72.4218 37.4405 65.9057 38.18C64.6121 38.3267 62.6339 38.4 59.9709 38.4C52.3249 38.3986 44.6043 38.3986 36.8091 38.4Z" fill="#01F5F5"/>
<path d="M67.4727 42L74.7207 7.728H83.6487C86.3047 7.728 88.4327 8.144 90.0327 8.976C91.6647 9.808 92.8327 10.96 93.5367 12.432C94.2727 13.904 94.6407 15.616 94.6407 17.568C94.6407 19.616 94.2727 21.408 93.5367 22.944C92.8327 24.48 91.8247 25.76 90.5127 26.784C89.2327 27.808 87.7287 28.576 86.0007 29.088C84.2727 29.568 82.3847 29.808 80.3367 29.808H77.1207L74.6247 42H67.4727ZM81.0087 23.856C82.2887 23.856 83.4087 23.616 84.3687 23.136C85.3287 22.656 86.0807 21.968 86.6247 21.072C87.1687 20.144 87.4407 19.056 87.4407 17.808C87.4407 16.4 87.1047 15.36 86.4327 14.688C85.7607 14.016 84.7527 13.68 83.4087 13.68H80.5767L78.5127 23.856H81.0087ZM95.0742 42L100.642 15.792H107.698L102.13 42H95.0742ZM105.25 12.528C104.258 12.528 103.426 12.32 102.754 11.904C102.082 11.456 101.746 10.72 101.746 9.696C101.746 8.768 101.922 8 102.274 7.392C102.626 6.784 103.122 6.32 103.762 6C104.402 5.68 105.17 5.52 106.066 5.52C106.994 5.52 107.794 5.728 108.466 6.144C109.17 6.56 109.522 7.28 109.522 8.304C109.522 9.552 109.17 10.576 108.466 11.376C107.794 12.144 106.722 12.528 105.25 12.528ZM105.783 42L116.583 28.56L111.783 15.792H119.367L121.671 23.616L126.903 15.792H135.255L124.695 28.944L129.927 42H122.247L119.751 33.984L113.991 42H105.783ZM132.699 53.52C131.899 53.52 131.243 53.472 130.731 53.376C130.187 53.312 129.739 53.216 129.387 53.088L129.435 47.472C129.787 47.536 130.187 47.6 130.635 47.664C131.051 47.728 131.515 47.76 132.027 47.76C133.435 47.76 134.587 47.328 135.483 46.464C136.379 45.6 137.163 44.496 137.835 43.152L138.411 42L135.051 15.792H142.011L143.067 27.936C143.131 28.64 143.179 29.408 143.211 30.24C143.243 31.072 143.259 31.888 143.259 32.688C143.259 33.456 143.243 34.16 143.211 34.8H143.403C143.595 34.256 143.787 33.664 143.979 33.024C144.203 32.352 144.459 31.632 144.747 30.864C145.035 30.096 145.371 29.28 145.755 28.416L151.467 15.792H159.147L143.739 45.744C142.843 47.504 141.835 48.96 140.715 50.112C139.595 51.264 138.363 52.112 137.019 52.656C135.707 53.232 134.267 53.52 132.699 53.52Z" fill="black"/>
</svg>
