<svg width="2270" height="600" viewBox="0 0 2270 600" fill="none" xmlns="http://www.w3.org/2000/svg">
<rect x="613" width="1657" height="600" fill="#0C0C0C"/>
<rect width="600" height="600" fill="#0C0C0C"/>
<path d="M744.195 101.408H945.367C974.664 101.408 1000.05 104.582 1021.54 110.93C1043.02 117.277 1060.85 126.473 1075.01 138.518C1089.17 150.399 1099.66 164.966 1106.5 182.219C1113.5 199.471 1117 218.921 1117 240.568C1117 260.913 1113.58 279.712 1106.74 296.965C1099.91 314.217 1089.41 329.191 1075.25 341.887C1061.25 354.419 1043.51 364.266 1022.03 371.428C1000.54 378.426 975.152 381.926 945.855 381.926L821.588 381.682V483H744.195V101.408ZM947.32 314.787C961.969 314.787 974.745 313.078 985.65 309.66C996.718 306.079 1005.91 301.115 1013.24 294.768C1020.73 288.257 1026.26 280.445 1029.84 271.33C1033.58 262.053 1035.46 251.799 1035.46 240.568C1035.46 217.945 1028.05 200.367 1013.24 187.834C998.59 175.139 976.617 168.791 947.32 168.791H821.588V314.787H947.32ZM1206.95 101.408H1284.83V483H1206.95V101.408ZM1507.11 289.152L1360.38 101.408H1455.1L1556.42 232.756L1658.23 101.408H1751.49L1602.08 288.42L1756.62 483H1661.65L1553 345.793L1441.92 483H1348.41L1507.11 289.152ZM1946.67 388.518L1779.92 101.408H1867.56L1985 318.449L2100.96 101.408H2188.61L2024.06 388.029V483H1946.67V388.518Z" fill="white"/>
<ellipse cx="214.994" cy="200.742" rx="126.994" ry="125.742" fill="#6F5CF3"/>
<rect width="24.5305" height="446.009" rx="5" transform="matrix(0.710602 -0.703595 0.710602 0.703595 203.042 210.604)" fill="#D9D9D9"/>
<path d="M293.432 300.103L310.863 282.843L534.447 504.222C536.409 506.165 536.409 509.315 534.447 511.258L524.121 521.482C522.159 523.425 518.978 523.425 517.015 521.482L293.432 300.103Z" fill="#F55649"/>
</svg>
